<?xml version="1.0" encoding="UTF-8"?>
<svg id="Layer_2" data-name="Layer 2" xmlns="http://www.w3.org/2000/svg" viewBox="0 0 16 16">
  <g id="Layer_2-2" data-name="Layer 2">
    <g id="Layer_1-2" data-name="Layer 1-2">
      <g>
        <rect width="16" height=".99"/>
        <rect y="6.25" width="16" height=".99"/>
        <path d="m15.98,1.84c-1.04,0-1.61.83-2.17,1.64-.5.73-.98,1.42-1.79,1.42h-.05c-.83,0-1.3-.69-1.8-1.42-.55-.8-1.12-1.63-2.16-1.64h-.01c-1.04,0-1.61.83-2.16,1.64-.51.74-.98,1.43-1.82,1.42-.84.02-1.32-.68-1.83-1.42C1.64,2.67,1.06,1.84.02,1.84c0,0-.01,0-.02,0v.49s.01,0,.02,0c.94,0,1.45.74,1.99,1.53.52.75,1.05,1.53,1.97,1.53h.06c.92,0,1.46-.78,1.97-1.53.54-.78,1.05-1.52,1.99-1.53.94,0,1.45.74,1.99,1.53.52.75,1.05,1.53,1.97,1.53h.06c.92,0,1.46-.78,1.97-1.53.54-.79,1.05-1.53,1.99-1.53,0,0,.01,0,.02,0v-.48s-.01,0-.02,0h0Z"/>
      </g>
      <g>
        <polygon points="4.66 15.98 4.84 15.98 4.84 15.46 5.2 15.46 5.2 15.2 4.84 15.2 4.84 14.83 5.25 14.83 5.25 14.57 4.66 14.57 4.66 15.98"/>
        <polygon points="5.6 14.57 5.42 14.57 5.42 15.98 5.99 15.98 5.99 15.71 5.6 15.71 5.6 14.57"/>
        <path d="m6.81,14.75c-.04-.07-.08-.12-.13-.15s-.11-.05-.17-.05-.12.02-.17.05-.1.09-.14.15-.07.14-.09.23-.03.19-.03.29.01.2.03.29.05.17.09.23c.04.07.08.12.14.15s.11.05.17.05.12-.02.17-.05.1-.09.13-.15c.04-.07.07-.14.09-.23s.03-.19.03-.29-.01-.2-.03-.29c-.02-.09-.05-.16-.09-.23h0Zm-.08.7c-.01.06-.03.1-.05.14-.02.04-.05.07-.08.09-.03.02-.06.03-.1.03s-.07-.01-.1-.03c-.03-.02-.06-.05-.08-.09s-.04-.09-.05-.14c-.01-.06-.02-.12-.02-.18s0-.13.02-.18.03-.1.05-.14.05-.07.08-.09c.03-.02.06-.03.1-.03s.07.01.1.03c.03.02.06.05.08.09.02.04.04.09.05.14s.02.12.02.18,0,.13-.02.18h0Z"/>
        <path d="m7.64,15.52c.05-.04.09-.1.12-.17.03-.08.04-.17.04-.27s-.01-.2-.04-.27-.07-.14-.12-.18-.11-.06-.18-.06h-.34v1.41h.18v-.39h.16l.15.39h.19l-.17-.45s0,0,0,0h0Zm-.07-.63s.04.1.04.18-.01.14-.04.18c-.03.04-.07.07-.12.07h-.15v-.49h.15c.06,0,.1.02.12.06Z"/>
        <polygon points="8.18 15.39 8.54 15.39 8.54 15.13 8.18 15.13 8.18 14.83 8.59 14.83 8.59 14.57 8 14.57 8 15.98 8.6 15.98 8.6 15.71 8.18 15.71 8.18 15.39"/>
        <path d="m9.29,15.26s-.06-.05-.09-.07-.06-.03-.1-.05c-.03-.01-.06-.03-.09-.04s-.05-.03-.06-.05c-.02-.02-.02-.05-.02-.09,0-.03,0-.06.01-.08,0-.02.03-.04.05-.06s.05-.02.09-.02.07,0,.11.03.07.05.11.08l.06-.25s-.08-.07-.13-.09-.1-.03-.14-.03c-.07,0-.13.02-.18.06s-.08.09-.11.16-.04.14-.04.22c0,.07,0,.14.03.19s.04.09.06.12c.03.03.06.05.09.07.03.02.06.03.1.05.03.01.06.03.09.04s.05.03.06.05c.02.02.02.05.02.09,0,.03,0,.06-.02.08-.01.02-.03.04-.05.05-.02.01-.05.02-.09.02-.05,0-.09-.01-.14-.04-.05-.03-.08-.06-.12-.11l-.06.25s.08.09.14.12.12.05.18.05c.07,0,.14-.02.18-.06s.08-.09.11-.16.04-.14.04-.22c0-.07,0-.13-.03-.18-.02-.05-.04-.09-.06-.12h0Z"/>
        <polygon points="9.46 14.83 9.71 14.83 9.71 15.98 9.89 15.98 9.89 14.83 10.14 14.83 10.14 14.57 9.46 14.57 9.46 14.83"/>
        <path d="m10.5,14.57l-.35,1.41h.18l.07-.3h.36l.07.3h.19l-.35-1.41h-.18Zm-.04.86l.12-.54.12.54h-.25Z"/>
        <polygon points="11.34 14.57 11.16 14.57 11.16 15.98 11.73 15.98 11.73 15.71 11.34 15.71 11.34 14.57"/>
        <path d="m1.23,9.81c-.51,0-.9.67-.9,1.71,0,.97.39,1.71.96,1.71.43,0,.69-.48.69-.48l-.15-.45s-.22.38-.53.38-.6-.39-.62-1.09h1.31s.01-.17.01-.26c0-.85-.27-1.53-.78-1.53h0Zm-.53,1.33c.05-.54.27-.83.53-.83.22,0,.41.29.42.83h-.95,0Z"/>
        <path d="m3.69,10.19c0,.1,0,.17,0,.17h0s-.15-.56-.58-.56c-.47,0-.81.67-.81,1.71s.31,1.71.79,1.71c.43,0,.58-.55.58-.55h0s0,.12,0,.28v1.48h0v.27c0,.29.07.41.23.41h.34v-.54h-.15s-.08-.04-.08-.14h0v-3.89c0-.1.03-.14.08-.14h.15v-.54h-.32c-.15,0-.22.12-.22.31h0Zm-.53,2.49c-.3,0-.51-.46-.51-1.17s.24-1.17.52-1.17c.34,0,.51.58.51,1.16,0,.83-.25,1.17-.52,1.17h0Z"/>
        <path d="m5.22,13.23c.36,0,.59-.43.66-.75h0s0,.08,0,.19v.12c0,.23.07.36.23.36h.33v-.54h-.15s-.08-.05-.08-.14v-2.59h-.35v1.53c0,.65-.22,1.23-.59,1.23-.28,0-.33-.36-.33-.81v-1.55c0-.28-.07-.4-.23-.4h-.34v.54h.15s.08.04.08.14v1.41c0,.86.21,1.25.61,1.25h0Z"/>
        <path d="m7.41,12.61h-.15s-.08-.04-.08-.14v-2.18c0-.29-.07-.41-.23-.41h-.34v.54h.15s.08.04.08.14v2.18c0,.29.07.41.23.41h.34v-.54h0Z"/>
        <rect x="6.85" y="8.59" width=".31" height=".65"/>
        <path d="m8.37,13.15v-.54h-.15s-.08-.04-.08-.14v-3.47c0-.29-.07-.41-.23-.41h-.34v.54h.15s.08.04.08.14v3.47c0,.29.07.41.23.41h.34,0Z"/>
        <polygon points="8.78 9.41 9.05 9.41 9.39 8.59 9.04 8.59 8.78 9.41"/>
        <path d="m8.77,10.56v2.18c0,.29.07.41.23.41h.34v-.54h-.15s-.08-.05-.08-.14v-2.18c0-.29-.07-.41-.23-.41h-.34v.54h.15s.08.04.08.14h0Z"/>
        <path d="m9.73,9.27v3.88h.33v-.23c0-.14,0-.25,0-.25h0s.16.55.57.55c.47,0,.82-.67.82-1.71s-.31-1.71-.79-1.71c-.42,0-.58.54-.58.54h0s0-.12,0-.27v-1.07c0-.29-.07-.41-.23-.41h-.34v.54h.15s.08.04.08.14h0Zm.85,1.08c.3,0,.51.46.51,1.17s-.24,1.17-.52,1.17c-.34,0-.51-.58-.51-1.16,0-.83.25-1.17.52-1.17Z"/>
        <path d="m12.21,10.7h0s0-.1,0-.23v-.21c0-.26-.07-.38-.23-.38h-.33v.54h.15s.08.04.08.14v2.59h.35v-1.34c0-.2.01-.4.04-.59.08-.48.28-.77.51-.77.06,0,.1.02.1.02v-.62s-.05-.01-.09-.01c-.28,0-.48.37-.57.85h0Z"/>
        <path d="m13.62,12.47v-2.18c0-.29-.07-.41-.23-.41h-.34v.54h.15s.08.04.08.14v2.18c0,.29.07.41.23.41h.34v-.54h-.15s-.08-.04-.08-.14h0Z"/>
        <rect x="13.28" y="8.59" width=".31" height=".65"/>
        <path d="m15.03,9.81c-.54,0-.97.72-.97,1.7s.43,1.72.97,1.72.97-.72.97-1.72-.43-1.7-.97-1.7Zm0,2.88c-.34,0-.62-.49-.62-1.17s.28-1.16.62-1.16.62.48.62,1.16-.28,1.17-.62,1.17Z"/>
      </g>
    </g>
  </g>
</svg>