<?xml version="1.0" encoding="UTF-8"?>
<svg id="Layer_2" data-name="Layer 2" xmlns="http://www.w3.org/2000/svg" viewBox="0 0 241.22 202.91">
  <defs>
    <style>
      .cls-1 {
        fill: #14652e;
      }

      .cls-2 {
        fill: #e28a2b;
      }

      .cls-3 {
        fill: #22a038;
      }

      .cls-4 {
        fill: #b7dd85;
      }

      .cls-5 {
        fill: #a7c58f;
      }

      .cls-6 {
        fill: #5f2917;
      }

      .cls-7 {
        fill: #ebad62;
      }

      .cls-8 {
        fill: #89442c;
      }
    </style>
  </defs>
  <g id="Layer_1-2" data-name="Layer 1">
    <g id="OBJECTS">
      <g>
        <path class="cls-5" d="m228.71,76.96c-24.14-16.02-34.38.74-62.73-22.81-16.54-13.74-20.18-31.93-34.3-43.66-18.97-15.75-45.17-15.04-64.53,10.89-23.23,31.12,10.69,56.83-14.6,87.27-2.73,3.29-28.65,10.1-42.55,24.42,0,0-10,8.41-10,28.21,0,11.59,10,26.15,10,26.15,4.63,5.23,10.97,10.31,19.38,15.24h151.56c-.18-10.89.61-21.52,7.04-29.26,7.53-9.06,24.95-12.69,40.73-25.44,0,0,12.5-8.78,12.5-40.85,0-20.91-12.5-30.17-12.5-30.17Z"/>
        <g>
          <path class="cls-5" d="m192.93,180.89c.68-3.05,5.28-5.44,8.63-4.47,3.54,1.02,5.08,4.07,3.84,7.6-1.21,3.46-5.97,4.72-9.6,2.54-2.18-1.31-3.34-3.6-2.88-5.67Z"/>
          <path class="cls-5" d="m214.72,171.59c-.63,2.64-2.52,3.94-4.93,3.4-2.74-.61-4.52-3.51-3.8-6.16.57-2.11,2.67-3.19,5.16-2.65,2.93.63,4.24,2.62,3.57,5.41Z"/>
        </g>
      </g>
      <path class="cls-1" d="m156.84,126.09c.99,3.89-11.41-2.35-14.44-5.43-2.41-2.45-6.36-10.11-3.27-9.57,8.55,1.52,13.22,5.68,16,12.03.56,1.28,1.43,2.1,1.71,2.97Z"/>
      <path class="cls-3" d="m161.85,93.17c1.03,2.06-.03,3.59-2.05,4.62-1.94,1-4.17.29-5.13-1.65-.64-1.29-.36-3.07.68-4.12,1.05-1.07,2.35-1.53,3.84-1.41,1.25.1,2.17.67,2.47,1.98.04.16.11.32.19.57Z"/>
      <g>
        <path class="cls-3" d="m83.78,57.51c.67-.21,1.32-.22,1.97.07.64.28,1.15.7,1.59,1.22,1.08,1.26,1.03,3.01-.1,4.03-1.06.96-2.81.82-3.93-.34-.72-.74-1.03-1.6-.73-2.63.1-.34.24-.67.21-1.04-.07-.74.35-1.11.99-1.31Z"/>
        <path class="cls-3" d="m68.55,64.67c1.04-.33,1.89.1,2.64.73.62.53.59,1.26.38,1.97-.28.94-1.37,1.58-2.45,1.48-1.1-.1-1.99-.91-2.12-1.92-.12-.99.53-1.94,1.55-2.26Z"/>
        <path class="cls-3" d="m71.32,51.2c-.35-.97.51-2.46,1.62-2.78,1.17-.34,2.14.24,2.42,1.44.27,1.18-.83,2.38-2.23,2.41-.84.02-1.57-.41-1.81-1.07Z"/>
      </g>
      <path class="cls-8" d="m104.1,125.69c5.54,1.19,5.66,3.99,8.39,13.95,2.71,11.67,3.99,17.75,4.59,20.75l8.93-2.45c-.59-3.04-1.68-8.54-3.21-15.51-5.19-23.63-5.28-22.57-4.33-23.1,2.22-1.24,4.83-4.34,14.64-8.68,3.83-1.69,11.61-3.23,11.02-4.48-.14-.3-.55-.47-.94-.34-1.78.58-8.15,1.11-10.42,1.79,9.79-9.4,7.63-14.07,7.09-12.26-2.06,6.95-17.26,16.22-22.54,19.7-1.41.93-2.67-22.09-2.67-24.23-.02-29.42,3.35-34,2.61-36.57-1.23-4.3-6.23,30.15-6.72,32.79-6.15-5.78-9-10.19-12.12-15.19-.3-.49-3.98-2.86,4.07,11.06.41.7.84,1.43,1.04,2.38-.74-.36-8.13-1.66-8.3-.59-.15.94,14.99,5.75,14.56,10.44-1.15,12.44.45,21.89.46,24.93-6.68-7.61-5.58-17.1-6.3-17.21-1.22-.18-1.24,5.88-1,7.41,1.07,6.82,2.64,5.91,1.79,6.51-1.51-1.8-10.73-11.79-11.79-9.68-.34.67.35.38,2.35,2.3,4.88,4.67,5.43,9.88,10.9,14.51-6.91-1.16-6.06-1.74-9.2-2.24-3.17-.5,2.64,2.67,7.1,4.03Z"/>
      <path class="cls-1" d="m134.21,60.31c4.27-1.08,6.97-.56,8.27-.67,2.7-.23,2.62,2.25.73,4.64-12.1,15.31-27.37,12.45-25.3,10.6,4.93-4.39,2.69-9.26,16.29-14.57Z"/>
      <path class="cls-3" d="m135.98,79.36c5.09,8.71-.56,21.63-7.13,23.76-1.43.46-7.28-11.52,3.96-24.7,1.74-2.04,2.59-.12,3.17.94Z"/>
      <path class="cls-1" d="m90.85,106.96c.48,1.73.89,2.97-2.02,2.97-12.65-.01-19.64-12.17-17.64-13.23,3.39-1.79,18.03,2.96,19.67,10.26Z"/>
      <path class="cls-3" d="m87.13,121.38c-6.85-.72-9.83-4.32-11.42-5.12-1.84-.92-2.88-1.31-1.8-2.3,7.08-6.48,37.63,9.98,13.22,7.42Z"/>
      <path class="cls-3" d="m109.76,70.86c.53,2.14,1.3,6.62-.31,5.45-1.31-.96-7.5-2.53-10.16-8.93-1.62-3.9-3.25-11.73.11-9.14.72.56,9.39,5.85,10.37,12.62Z"/>
      <path class="cls-3" d="m152.43,88.48c-1.81,2.71-3.2,4.39-9.09,5.91-2.88.74.12-10.84,9.58-13.99.04.14,6.8-2.81-.49,8.07Z"/>
      <path class="cls-4" d="m162.55,109.55c.69,2.51-4.32,6.37-13.08.8-2.21-1.4-4.88-4.16-2.31-4.52,1.63-.23,6.93-2.66,11.63,1.04,2.13,1.68,3.42,1.46,3.76,2.68Z"/>
      <path class="cls-3" d="m128.53,48.1c3.42-.94.3,8.85-2.95,11.23-1.37,1-2.97,1.64-4.3,2.72-2.01,1.63-4.04-8.56,5.38-12.97.63-.3,1.17-.81,1.88-.98Z"/>
      <path class="cls-4" d="m106.04,49.54c-.42-1.84-.72-3.54-.52-5.29.09-.82,1.37-1.35,2.08-.82,10.79,8.08,5.47,24.06-1.55,6.11Z"/>
      <path class="cls-4" d="m92.86,73c-8.32,2.41-13.17-3.46-13.14-3.98.11-2.3,15.42-.29,15.5,1.72.07,1.8-.62,1.72-2.35,2.26Z"/>
      <path class="cls-3" d="m79.39,84.37c-10.02-5.89,10.23-7.82,14.41-2.52,2.1,2.67-6.51,4.58-9.92,4.35-1.64-.11-3.1-.96-4.49-1.83Z"/>
      <path class="cls-3" d="m95.99,96.38c-1-2.59.91-7.53,2.42-5.14,4.1,6.48,2.94,7.61,3.58,10.23.82,3.39-4.93-.26-6-5.09Z"/>
      <g>
        <path class="cls-8" d="m77.47,138.68c.87.06,1.7.27,2.5.64,3.14,1.44,6.41,2.25,9.89,2.04,3.71-.23,7.29-1.06,10.76-2.4,2.7-1.04,5.36-2.18,8.22-2.72,1.39-.26,2.77-.27,4.18-.13,3.23.32,6.42.87,9.62,1.35,2.45.37,4.81-.15,7.18-.7,2.49-.58,4.94-1.31,7.46-1.74,1.9-.32,3.82-.51,5.77-.38,1.66.1,3.33.12,4.99.29,1.94.2,3.82.67,5.59,1.46,1.73.77,3.54,1.33,5.29,2.04.54.22,1.07.44,1.58.7,1.2.61,1.39,1.45.59,2.51-1.15,1.51-2.58,2.74-4.2,3.66-4.06,2.3-7.64,5.28-11.45,7.94-4.59,3.21-8.94,6.75-13.5,10.01-1.73,1.24-3.45,2.57-4.69,4.33-1.29,1.84-2.23,3.89-3.15,5.94-.45,1.01-.68,2.14-1.57,2.9-.65.56-1.36,1.07-2.15,1.41-.62.27-.97.06-1.26-.54-.39-.82-.42-1.72-.64-2.58-.53-2.04-1.75-3.63-3.18-5.08-3.28-3.31-7.25-5.65-11.2-8.02-1.97-1.18-3.99-2.26-6.02-3.33-1.98-1.04-3.77-2.37-5.54-3.72-2.36-1.8-4.82-3.43-7.42-4.86-1-.55-1.91-1.23-2.8-1.93-2.2-1.73-2.5-3.51-1.73-6.03.14-.45.07-.61-.3-.82-.93-.53-1.85-1.06-2.93-1.23-.37-.06-.73-.15-.68-.65.06-.52.51-.29.8-.37Z"/>
        <g>
          <path class="cls-6" d="m156,142.84c1.37.63,2.59,1.32,3.6,2.3.34.33.76.61.85,1.15.14.87-.03,1.2-.86,1.5-1.36.5-2.59.46-3.92-.35-2.26-1.39-4.8-2.09-7.43-2.37-3.26-.35-6.54-.02-9.81-.15-2.22-.09-4.43-.18-6.64-.49-1.5-.21-3.02-.02-4.51.25-3.68.69-7.3.53-10.96-.31-2.7-.62-5.27-1.6-7.89-2.43-1.75-.55-3.56-.76-5.39-.76-1.25,0-2.49-.04-3.74-.03-1.18,0-2.29.2-3.39.59-2.62.93-5.33,1.37-8.11,1.31-3.07-.07-6.05-.54-8.82-1.98-.6-.31-1.11-.73-1.57-1.22-.26-.28-.35-.62-.12-.9.22-.26.51-.02.71.13,1.05.85,2.33.79,3.55.92,1.39.15,2.77.31,4.18.31,3.26,0,6.4-.46,9.43-1.74,3.6-1.52,7.37-2.52,11.23-3.03,4.34-.57,8.68-.73,12.88.98,1.46.59,3.02.33,4.55.1,2.92-.43,5.62-1.64,8.45-2.41,3.35-.91,6.74-1.15,10.18-.97,3.72.19,7.14,1.56,10.54,2.94,1.38.56,2.73,1.2,4.02,1.95.41.24.83.46,1.3.47.91.01,1.52.57,2.11,1.13.86.81.9,1.9-.41,2.35-.88.3-1.77.62-2.72.57-.4-.02-.78.1-1.29.19Z"/>
          <path class="cls-6" d="m92.22,151.62c-1.65-.93-3.35-1.66-4.94-2.6-1.9-1.11-3.45-2.65-5.05-4.13-1.17-1.08-2.57-1.83-3.76-2.88-.14-.12-.49-.16-.36-.38.15-.26.45-.09.65.03,1.28.79,2.71,1.37,3.88,2.34,2.96,2.45,6.42,3.83,10.02,4.99,2.99.96,6.05,1.6,9.16,1.98,2.01.25,4.03.08,6.04-.19,2.31-.31,4.63-.64,6.95-.05,1.43.36,2.76,1.02,4.05,1.7,2.92,1.54,6.01,2.54,9.2,3.32.89.22,1.81.26,2.71.28,2.84.09,5.7.25,8.47-.66,1.18-.39,2.87.47,3.27,1.63.12.34-.02.59-.26.84-1.16,1.24-2.72,1.72-4.27,2.21-1.35.42-2.77.35-4.13.67-1.17.28-2.32.6-3.49.88-.55.13-.87.61-1.35.84-1.85.89-3.55,1.99-5.01,3.46-1.1,1.11-1.71,2.48-2.29,3.87-.76,1.82-1.37,3.69-1.58,5.69-.19,1.86-1.13,3.24-2.94,4.03-1.44.63-1.63,0-1.64-1.14-.01-.89-.14-1.71-.36-2.54-.52-1.95-1-3.92-1.94-5.73-1.14-2.19-2.45-4.23-4.24-5.95-.35-.33-.7-.49-1.18-.49-1.22.02-2.45.04-3.67.13-1.26.1-1.45-.05-1.54-1.61-.03-.48.07-.98.2-1.45.13-.46.07-.65-.45-.68-.44-.03-.87-.15-1.31-.24-.55-.12-1-.36-1.05-1.01-.03-.41-.33-.58-.68-.73-2.39-.99-4.89-1.62-7.39-2.24-.97-.24-1.32-.74-1.2-1.73.06-.46.15-.92.27-1.37.16-.63.47-1.11,1.24-1.09Z"/>
          <path class="cls-6" d="m128.89,154.55c-1.27-.17-2.59-.18-3.85-.55-1.44-.43-1.99-1.85-1.07-3.04.48-.61,1.28-.99,2.07-1.13,1.73-.3,3.36.06,4.83,1.04.15.1.3.21.41.33,1.13,1.24.96,1.81-.31,2.65-.63.41-1.29.69-2.08.7Z"/>
          <path class="cls-6" d="m105.53,149.89c-.8-.03-1.5.12-1.73-.76-.23-.87.12-2.21.75-2.58.7-.41,1.45-.74,2.16-1.16.88-.52,3.07.22,3.6,1.09.43.72.32,1.35-.47,1.88-1.35.89-2.81,1.51-4.3,1.53Z"/>
          <path class="cls-6" d="m88.83,139.19c-.7-.05-1.38-.14-1.69-.86-.25-.59.19-1.45.86-1.92,1.35-.95,2.79-1.3,4.4-.78.52.17,1.13.36,1.22.91.09.51-.26,1.04-.73,1.33-1.24.78-2.61,1.2-4.06,1.32Z"/>
          <path class="cls-6" d="m92.89,146.8c-.93,0-1.42-.57-1.3-1.5.11-.87.33-1.62,1.19-2.1,1.33-.75,2.14-.57,3.4.58.53.49.49.9,0,1.43-.75.8-2.36,1.58-3.29,1.59Z"/>
          <path class="cls-6" d="m127.78,132.75c-.04-.71.36-1.26,1.08-1.7.92-.56,1.78-.87,2.75-.14.6.44.74,1.04.22,1.57-.87.88-1.98,1.33-3.21,1.39-.65.03-.85-.26-.84-1.12Z"/>
          <path class="cls-6" d="m94.84,135.97c-.94,0-1.46-.33-1.64-.92-.21-.68.02-1.41.58-1.83,1.11-.82,2.57-.29,2.95,1.06.08.29.05.54-.15.74-.53.53-1.17.85-1.74.95Z"/>
          <path class="cls-6" d="m133.49,150.25c.05-.25.1-.56.18-.86.13-.43.45-.6.88-.5.7.15,1.34.48,1.93.87.51.34.51.86.09,1.31-.8.85-1.77.95-2.57.28-.33-.27-.49-.62-.5-1.1Z"/>
          <path class="cls-6" d="m143.12,147.51c0-.91.61-1.58,1.42-1.56.69.02,1.58.76,1.58,1.32,0,.48-1.17,1.38-1.81,1.38-.58,0-1.19-.59-1.19-1.14Z"/>
          <path class="cls-6" d="m96.19,147.19s0-.2.04-.35c.12-.49.21-1.04.89-1.05.55-.01,1.31.59,1.44,1.09.05.2-.02.34-.14.48-.39.44-.89.74-1.44.91-.52.16-.8-.21-.8-1.08Z"/>
        </g>
        <path class="cls-7" d="m211.42,105.97c-4.03-1.47-10.72,2.15-13.64,6.42-.35.51-.75,1.17-.77.55-.08-2.53.93-22.19-1.52-21.51-10.3,2.85-5.73,9.5-6.89,12.95-3.58,10.62-2.47,7.53-4.05-3.68-.56-3.96-.64-4.68-1.66-4.66-1.67.03-4.7,1.99-5.58,5.87-.75,3.34.95,6.16.34,7.51-1.37,3.04-.64,4-1.13,1.41-.32-1.68.37-4.17-1.35-3.75-1.37.34-3.69,2.85-3.13,5.38.11.48.37,2.48-.13,3.26-2.24,3.51.07,5.52-1.22,7.63-2.3,3.76-.48,6.55-1.81,8.35-17.57,23.76-47.8,22.35-49.64,45.39-.62,7.77,1.96,20.18,2.04,24.66.03,1.55-1.75,1.07,25.87,1.07-1.61-22.49,4.2-22.61,21.48-34.32,9.48-6.43,5.64-9.24,19.79-20.89,15.17-12.48,7.29-6.04,21.61-35.59,2-4.11,3.99-5.12,1.39-6.06Z"/>
        <path class="cls-7" d="m140.12,157.83c-.02-2.14.9-3.76,2.67-4.93,2.06-1.36,4.13-2.71,6.12-4.17,2.46-1.8,4.67-3.84,6.59-6.21,1.39-1.73,3.07-3.16,4.75-4.58,1.21-1.02,2.27-2.19,3.3-3.39,1.25-1.46,2.35-3.1,4.21-3.91,2.03-.89,3.99-2,6.24-2.3,1.27-.17,2.56-.34,3.81.21.7.3,1.26.73,1.58,1.45.59,1.31.64,2.57-.23,3.79-2.43,3.4-4.59,6.99-7.23,10.24-2.48,3.06-4.53,6.44-6.5,9.86-1.29,2.25-2.88,4.28-4.58,6.23-1.45,1.67-2.41,3.64-3.3,5.62-.34.76-.53,1.53-1.12,2.19-.87.98-1.95,1.55-3.2,1.55-1.52,0-3.07-.02-4.57-.42-4.18-1.13-6.7-3.94-8-7.95-.34-1.06-.49-2.17-.55-3.27Z"/>
        <g>
          <path class="cls-2" d="m174,140.54c-1.37-.13-2.4-.78-3.29-1.65-1.31-1.29-1.48-3.45-.44-5.18,1.02-1.71,1.96-3.48,3.41-4.92-1.35.26-2.64.6-3.8,1.33-2.76,1.75-4.98,4.09-6.98,6.63-2.59,3.28-5.23,6.51-7.88,9.75-2.68,3.29-5.99,5.81-9.49,8.12-.53.35-1.12.54-1.74.62-.15.02-.33.13-.41-.06-.09-.2.12-.27.24-.33.93-.5,1.74-1.15,2.54-1.84,2.98-2.57,5.93-5.15,8.48-8.19,2.57-3.07,4.98-6.26,7.48-9.38,2.02-2.52,4.24-4.87,7.04-6.57,1.48-.9,3.08-1.52,4.78-1.77,1.11-.16,2.23.13,3.23.63.97.49,1.99.87,2.9,1.49,1.16.79,1.35,2.35.81,3.4-2.41,4.69-5.11,9.23-7.82,13.75-1.98,3.32-4.53,6.21-7.5,8.71-1.65,1.39-2.85,3.16-3.84,5.07-.9,1.74-1.83,3.47-3.37,4.77-.66.56-1.28,1.18-2.16,1.4-.15.04-.31.11-.42-.07-.13-.2.05-.28.17-.37,1.64-1.24,2.59-2.97,3.3-4.84,1.23-3.21,3.14-5.9,5.76-8.12,3.31-2.8,5.78-6.26,7.74-10.1.38-.75.81-1.48,1.26-2.29Z"/>
          <path class="cls-2" d="m208.26,106.83c-2.37-.13-4.44.65-6.16,2.24-1.27,1.17-2.16,2.66-2.92,4.2-1.37,2.72-2.65,5.49-4.15,8.14-3.1,5.48-6.9,10.42-11.57,14.66-1.68,1.52-3.45,2.94-5.21,4.37-.24.2-.66.64-.9.35-.27-.32.29-.54.49-.79,1.23-1.46,2.37-3,3.77-4.32,1.46-1.38,2.9-2.77,4.25-4.24,2.35-2.56,4.39-5.35,6.16-8.35,2.31-3.91,4.23-8.02,6.55-11.93,1.28-2.17,2.9-3.98,5.17-5.16.87-.45,1.78-.68,2.73-.8,1.84-.23,3.66-.36,5.48.18,1.23.37,1.74,1.05,1.09,2.44-1.26,2.68-2.49,5.37-3.73,8.05-.25.55-.52,1.09-.92,1.54-.45.5-.79.42-1-.2-.11-.32-.14-.64-.04-.98.71-2.27,1.29-4.58,2.15-6.8.27-.7.69-1.29,1.14-1.87.32-.4.2-.6-.27-.62-.71-.03-1.41-.24-2.12-.13Z"/>
          <path class="cls-2" d="m185.52,115.21c-.19-2.9-.39-5.8-.58-8.7-.03-.42-.04-.84-.06-1.26-.04-.81-.69-1.32-1.01-1.99-.72-1.5-1.27-3.03-1.21-4.73.04-1.02.77-1.88,1.71-2.11.65-.16.96.13,1.05.68.16.96.3,1.93.37,2.9.24,3.01.45,6.02.66,9.03.09,1.24.05,2.49.11,3.73.12,2.28.33,4.57.16,6.86-.2,2.59-.62,5.13-2.13,7.34-.65.95-1.61,1.59-2.44,2.36-.19.17-.48.35-.72.12-.22-.22.02-.45.14-.65.93-1.54,1.99-3,2.65-4.7.67-1.7.93-3.48,1.07-5.27.09-1.19.26-2.39.22-3.6Z"/>
          <path class="cls-2" d="m177.77,117.35c.1,2.36-.03,4.5-.67,6.59-.32,1.03-.89,1.88-1.71,2.57-.13.11-.25.31-.45.18-.2-.13-.17-.36-.08-.54.55-1.11.76-2.31.92-3.52.32-2.38.79-4.74.61-7.15-.08-1.11-.08-2.23-.31-3.31-.17-.78-.6-1.52-.7-2.34-.11-.96-.18-1.91.45-2.75.19-.25.4-.44.71-.41.3.03.42.31.53.55.31.65.29,1.37.28,2.03-.03,2.78.67,5.52.42,8.12Z"/>
          <path class="cls-2" d="m195.23,97.62c0-1.61.37-3.17.58-4.75.02-.13.06-.26.12-.38.17-.33.29-.76.78-.68.54.08.42.52.46.89.18,1.79.45,3.56.73,5.34.12.77.24,1.54.26,2.31.02.55-.33.98-.84,1.18-.52.2-.98-.06-1.29-.47-.57-.75-.73-1.65-.82-2.57-.03-.29,0-.58,0-.87Z"/>
        </g>
        <path class="cls-7" d="m89.87,202.84c27.66,0,25.84.47,25.87-1.07.07-3.76.61-4.28,1.62-14.09,3.85-37.37-27.97-27.24-49.21-55.96-1.33-1.81.5-4.58-1.81-8.35-1.29-2.11,1.04-4.08-1.22-7.63-.51-.8-.22-2.86-.13-3.26.55-2.49-1.72-5.04-3.13-5.38-1.73-.42-1.03,2.07-1.35,3.75-.49,2.6.23,1.62-1.13-1.41-.6-1.33,1.09-4.2.34-7.51-.82-3.65-3.73-5.84-5.58-5.87-1.85-.03-1.21,4.25-2.98,15.1-5.57-11.32-1.16-9.83-3.11-15.01-1.42-3.77-4.4-4.12-6.51-4.7-1.26-.35-1.1,1.24-1.37,4.09-1.19,12.66,1.09,19.8-.92,16.87-2.96-4.32-9.71-7.86-13.64-6.42-2.57.94-.53,2.1,1.39,6.07,14.29,29.49,6.44,23.11,21.61,35.59,13.45,11.07,11.11,15,19.79,20.89,17.33,11.75,23.08,11.82,21.48,34.32Z"/>
        <path class="cls-7" d="m96.89,157.83c.02-2.14-.9-3.76-2.67-4.93-2.06-1.36-4.13-2.71-6.12-4.17-2.46-1.8-4.67-3.84-6.59-6.21-1.39-1.73-3.07-3.16-4.75-4.58-1.21-1.02-2.27-2.19-3.3-3.39-1.25-1.46-2.35-3.1-4.21-3.91-2.03-.89-3.99-2-6.24-2.3-1.27-.17-2.56-.34-3.81.21-.7.3-1.26.73-1.58,1.45-.59,1.31-.64,2.57.23,3.79,2.43,3.4,4.59,6.99,7.23,10.24,2.48,3.06,4.53,6.44,6.5,9.86,1.29,2.25,2.88,4.28,4.58,6.23,1.45,1.67,2.41,3.64,3.3,5.62.34.76.53,1.53,1.12,2.19.87.98,1.95,1.55,3.2,1.55,1.52,0,3.07-.02,4.57-.42,4.18-1.13,6.7-3.94,8-7.95.34-1.06.49-2.17.55-3.27Z"/>
        <g>
          <path class="cls-2" d="m63.02,140.54c1.37-.13,2.4-.78,3.29-1.65,1.31-1.29,1.48-3.45.44-5.18-1.02-1.71-1.96-3.48-3.41-4.92,1.35.26,2.64.6,3.8,1.33,2.76,1.75,4.98,4.09,6.98,6.63,2.59,3.28,5.23,6.51,7.88,9.75,2.68,3.29,5.99,5.81,9.49,8.12.53.35,1.12.54,1.74.62.15.02.33.13.41-.06.09-.2-.12-.27-.24-.33-.93-.5-1.74-1.15-2.54-1.84-2.98-2.57-5.93-5.15-8.48-8.19-2.57-3.07-4.98-6.26-7.48-9.38-2.02-2.52-4.24-4.87-7.04-6.57-1.48-.9-3.08-1.52-4.78-1.77-1.11-.16-2.23.13-3.23.63-.97.49-1.99.87-2.9,1.49-1.16.79-1.35,2.35-.81,3.4,2.41,4.69,5.11,9.23,7.82,13.75,1.98,3.32,4.53,6.21,7.5,8.71,1.65,1.39,2.85,3.16,3.84,5.07.9,1.74,1.83,3.47,3.37,4.77.66.56,1.28,1.18,2.16,1.4.15.04.31.11.42-.07.13-.2-.05-.28-.17-.37-1.64-1.24-2.59-2.97-3.3-4.84-1.23-3.21-3.14-5.9-5.76-8.12-3.31-2.8-5.78-6.26-7.74-10.1-.38-.75-.81-1.48-1.26-2.29Z"/>
          <path class="cls-2" d="m28.76,106.83c2.37-.13,4.44.65,6.16,2.24,1.27,1.17,2.16,2.66,2.92,4.2,1.37,2.72,2.65,5.49,4.15,8.14,3.1,5.48,6.9,10.42,11.57,14.66,1.68,1.52,3.45,2.94,5.21,4.37.24.2.66.64.9.35.27-.32-.29-.54-.49-.79-1.23-1.46-2.37-3-3.77-4.32-1.46-1.38-2.9-2.77-4.25-4.24-2.35-2.56-4.39-5.35-6.16-8.35-2.31-3.91-4.23-8.02-6.55-11.93-1.28-2.17-2.9-3.98-5.17-5.16-.87-.45-1.78-.68-2.73-.8-1.84-.23-3.66-.36-5.48.18-1.23.37-1.74,1.05-1.09,2.44,1.26,2.68,2.49,5.37,3.73,8.05.25.55.52,1.09.92,1.54.45.5.79.42,1-.2.11-.32.14-.64.04-.98-.71-2.27-1.29-4.58-2.15-6.8-.27-.7-.69-1.29-1.14-1.87-.32-.4-.2-.6.27-.62.71-.03,1.41-.24,2.12-.13Z"/>
          <path class="cls-2" d="m51.49,115.21c.19-2.9.39-5.8.58-8.7.03-.42.04-.84.06-1.26.04-.81.69-1.32,1.01-1.99.72-1.5,1.27-3.03,1.21-4.73-.04-1.02-.77-1.88-1.71-2.11-.65-.16-.96.13-1.05.68-.16.96-.3,1.93-.37,2.9-.24,3.01-.45,6.02-.66,9.03-.09,1.24-.05,2.49-.11,3.73-.12,2.28-.33,4.57-.16,6.86.2,2.59.62,5.13,2.13,7.34.65.95,1.61,1.59,2.44,2.36.19.17.48.35.72.12.22-.22-.02-.45-.14-.65-.93-1.54-1.99-3-2.65-4.7-.67-1.7-.93-3.48-1.07-5.27-.09-1.19-.26-2.39-.22-3.6Z"/>
          <path class="cls-2" d="m59.25,117.35c-.1,2.36.03,4.5.67,6.59.32,1.03.89,1.88,1.71,2.57.13.11.25.31.45.18.2-.13.17-.36.08-.54-.55-1.11-.76-2.31-.92-3.52-.32-2.38-.79-4.74-.61-7.15.08-1.11.08-2.23.31-3.31.17-.78.6-1.52.7-2.34.11-.96.18-1.91-.45-2.75-.19-.25-.4-.44-.71-.41-.3.03-.42.31-.53.55-.31.65-.29,1.37-.28,2.03.03,2.78-.67,5.52-.42,8.12Z"/>
          <path class="cls-2" d="m41.79,97.62c0-1.61-.37-3.17-.58-4.75-.02-.13-.06-.26-.12-.38-.17-.33-.29-.76-.78-.68-.54.08-.42.52-.46.89-.18,1.79-.45,3.56-.73,5.34-.12.77-.24,1.54-.26,2.31-.02.55.33.98.84,1.18.52.2.98-.06,1.29-.47.57-.75.73-1.65.82-2.57.03-.29,0-.58,0-.87Z"/>
        </g>
      </g>
    </g>
  </g>
</svg>