<?xml version="1.0" encoding="UTF-8"?>
<svg id="Layer_2" data-name="Layer 2" xmlns="http://www.w3.org/2000/svg" viewBox="0 0 426.15 234.93">
  <defs>
    <style>
      .cls-1 {
        fill: #fff;
      }
    </style>
  </defs>
  <g id="Layer_1-2" data-name="Layer 1">
    <g>
      <rect class="cls-1" width="426.15" height="14.56"/>
      <rect class="cls-1" y="91.73" width="426.15" height="14.56"/>
      <path class="cls-1" d="m425.56,27c-27.78,0-43,12.23-57.72,24.06-13.36,10.74-25.99,20.88-47.77,20.88h-1.35c-22.03,0-34.66-10.15-48.02-20.88-14.68-11.8-29.86-23.99-57.49-24.06h-.28c-27.63.07-42.81,12.26-57.49,24.06-13.5,10.84-26.11,21.06-48.44,20.88-22.38.26-35.21-10.03-48.71-20.88C43.57,39.23,28.35,27,.58,27c-.2,0-.36.08-.55.11v7.13c.19.03.36.11.55.11,25.14,0,38.69,10.89,53.04,22.41,13.78,11.08,28.04,22.53,52.44,22.53h1.5c24.53,0,38.78-11.45,52.56-22.53,14.33-11.51,27.86-22.39,52.94-22.41,25.09.03,38.62,10.9,52.95,22.41,13.78,11.08,28.04,22.53,52.44,22.53h1.5c24.53,0,38.77-11.45,52.56-22.53,14.35-11.53,27.9-22.41,53.04-22.41.21,0,.39-.08.59-.12v-7.11c-.2-.03-.38-.12-.59-.12h0Z"/>
    </g>
    <g>
      <polygon class="cls-1" points="124.09 234.58 128.88 234.58 128.88 227.03 138.46 227.03 138.46 223.19 128.88 223.19 128.88 217.71 139.74 217.71 139.74 213.87 124.09 213.87 124.09 234.58"/>
      <polygon class="cls-1" points="149.23 213.87 144.44 213.87 144.44 234.58 159.61 234.58 159.61 230.67 149.23 230.67 149.23 213.87"/>
      <path class="cls-1" d="m181.49,216.56c-1.02-.97-2.21-1.72-3.58-2.25s-2.88-.8-4.51-.8-3.12.27-4.5.8-2.58,1.28-3.61,2.25-1.82,2.1-2.38,3.4-.84,2.72-.84,4.26.28,2.96.84,4.26,1.35,2.44,2.37,3.4c1.02.97,2.22,1.72,3.61,2.25s2.9.8,4.54.8,3.11-.27,4.48-.8,2.56-1.28,3.58-2.23c1.02-.96,1.81-2.09,2.38-3.4s.86-2.74.86-4.28-.29-2.98-.86-4.27c-.57-1.29-1.37-2.42-2.38-3.39h0Zm-2.1,10.35c-.33.81-.78,1.51-1.38,2.1-.59.59-1.28,1.05-2.06,1.36-.78.32-1.63.47-2.56.47s-1.79-.16-2.57-.47c-.79-.31-1.47-.77-2.06-1.36s-1.04-1.3-1.36-2.12c-.33-.82-.49-1.71-.49-2.68s.16-1.88.49-2.69.78-1.51,1.38-2.1,1.28-1.04,2.06-1.36c.78-.31,1.63-.47,2.56-.47s1.78.16,2.57.47c.79.32,1.47.77,2.06,1.36.58.59,1.04,1.29,1.36,2.1s.49,1.71.49,2.69-.16,1.88-.49,2.69h0Z"/>
      <path class="cls-1" d="m203.57,227.92c1.34-.59,2.38-1.44,3.11-2.56.73-1.11,1.09-2.44,1.09-3.98s-.36-2.9-1.09-4.02-1.77-1.99-3.11-2.59-2.94-.9-4.79-.9h-8.96v20.71h4.79v-5.77h4.39l3.98,5.78h5.18l-4.63-6.64s.03,0,.04-.02h0Zm-1.75-9.21c.73.63,1.09,1.52,1.09,2.66s-.37,2.01-1.09,2.65c-.73.64-1.83.96-3.31.96h-3.91v-7.22h3.91c1.48,0,2.58.32,3.31.95Z"/>
      <polygon class="cls-1" points="217.8 225.94 227.42 225.94 227.42 222.21 217.8 222.21 217.8 217.71 228.69 217.71 228.69 213.87 213.04 213.87 213.04 234.58 229.07 234.58 229.07 230.73 217.8 230.73 217.8 225.94"/>
      <path class="cls-1" d="m247.56,224.1c-.71-.43-1.49-.78-2.35-1.04-.86-.26-1.72-.48-2.57-.68-.86-.2-1.64-.39-2.35-.59-.71-.2-1.28-.46-1.72-.78-.43-.33-.65-.75-.65-1.29,0-.45.13-.85.38-1.2.26-.34.68-.63,1.27-.84s1.35-.33,2.28-.33,1.87.13,2.84.4,1.93.68,2.9,1.23l1.48-3.64c-.97-.61-2.08-1.07-3.34-1.38s-2.54-.46-3.85-.46c-1.95,0-3.58.29-4.87.87s-2.26,1.36-2.9,2.34c-.64.98-.96,2.06-.96,3.24,0,1.1.22,2.01.67,2.72s1.02,1.28,1.73,1.72c.71.43,1.49.79,2.35,1.07.86.28,1.72.51,2.57.7.86.19,1.64.38,2.35.59s1.28.47,1.72.8c.43.33.65.76.65,1.32,0,.43-.14.82-.42,1.15-.28.34-.71.6-1.29.78-.58.19-1.35.28-2.29.28-1.24,0-2.47-.2-3.68-.61-1.21-.4-2.26-.92-3.15-1.55l-1.63,3.61c.93.71,2.15,1.29,3.67,1.73,1.52.44,3.11.67,4.76.67,1.97,0,3.6-.3,4.9-.89s2.26-1.37,2.91-2.34.98-2.03.98-3.2c0-1.08-.22-1.98-.67-2.69-.44-.71-1.02-1.28-1.73-1.72h0Z"/>
      <polygon class="cls-1" points="252.06 217.77 258.69 217.77 258.69 234.58 263.48 234.58 263.48 217.77 270.11 217.77 270.11 213.87 252.06 213.87 252.06 217.77"/>
      <path class="cls-1" d="m279.63,213.87l-9.23,20.71h4.91l1.85-4.44h9.6l1.84,4.44h5.03l-9.26-20.71h-4.74Zm-.96,12.63l3.3-7.93,3.28,7.93h-6.58Z"/>
      <polygon class="cls-1" points="302.03 213.87 297.23 213.87 297.23 234.58 312.41 234.58 312.41 230.67 302.03 230.67 302.03 213.87"/>
      <path class="cls-1" d="m32.73,143.97c-13.65,0-24.08,9.86-24.08,25.12,0,14.22,10.33,25.12,25.5,25.12,11.38,0,18.49-7.02,18.49-7.02l-3.98-6.54s-5.78,5.59-14.03,5.59-15.92-5.78-16.5-16.02h34.98s.28-2.56.28-3.8c0-12.42-7.21-22.46-20.67-22.46h.01Zm-14.22,19.53c1.42-7.96,7.11-12.23,14.12-12.23,5.97,0,11,4.27,11.28,12.23h-25.41,0Z"/>
      <path class="cls-1" d="m98.34,149.66c0,1.42.09,2.47.09,2.47h-.19s-4.08-8.15-15.45-8.15c-12.61,0-21.62,9.86-21.62,25.12s8.15,25.12,21.05,25.12c11.38,0,15.45-8.06,15.45-8.06h.19s-.19,1.71-.19,4.17v21.71h0v3.96c0,4.26,1.79,6.09,6.06,6.09h9.1v-7.87h-3.89c-1.33,0-2.09-.66-2.09-2.09v-.1h0v-56.97c0-1.42.76-2.09,2.09-2.09h3.89v-7.87h-8.63c-4.08,0-5.88,1.71-5.88,4.55h.02Zm-14.22,36.6c-8.05,0-13.65-6.73-13.65-17.16s6.26-17.16,13.84-17.16c9.1,0,13.56,8.53,13.56,17.06,0,12.23-6.64,17.25-13.75,17.25h0Z"/>
      <path class="cls-1" d="m139,194.21c9.48,0,15.64-6.26,17.63-11h.19s-.1,1.23-.1,2.75v1.8c0,3.41,1.99,5.31,6.07,5.31h8.82v-7.87h-3.88c-1.33,0-2.09-.67-2.09-2.09v-38.01h-9.2v22.47c0,9.48-5.78,18.11-15.64,18.11-7.58,0-8.91-5.31-8.91-11.94v-22.75c0-4.07-1.8-5.88-6.16-5.88h-9v7.87h3.89c1.33,0,2.09.66,2.09,2.09v20.76c0,12.7,5.5,18.39,16.3,18.39h0Z"/>
      <path class="cls-1" d="m197.31,185.2h-3.89c-1.32,0-2.08-.66-2.08-2.09v-31.95c0-4.26-1.8-6.06-6.07-6.06h-9v7.87h3.88c1.33,0,2.09.66,2.09,2.09v31.94c0,4.26,1.8,6.06,6.07,6.06h9.01v-7.87h0Z"/>
      <rect class="cls-1" x="182.42" y="126.15" width="8.25" height="9.57"/>
      <path class="cls-1" d="m222.81,193.07v-7.87h-3.89c-1.33,0-2.08-.66-2.08-2.09v-50.9c0-4.26-1.8-6.07-6.07-6.07h-9.1v7.87h3.89c1.32,0,2.09.66,2.09,2.08v50.9c0,4.27,1.8,6.07,6.07,6.07h9.1-.01Z"/>
      <polygon class="cls-1" points="233.9 138.19 241.1 138.19 250.11 126.15 240.82 126.15 233.9 138.19"/>
      <path class="cls-1" d="m233.71,155.06v31.94c0,4.27,1.8,6.07,6.16,6.07h9v-7.87h-3.88c-1.33,0-2.09-.67-2.09-2.09v-31.94c0-4.26-1.8-6.07-6.07-6.07h-9.1v7.87h3.88c1.33,0,2.09.66,2.09,2.09h.01Z"/>
      <path class="cls-1" d="m259.12,136.1v56.97h8.81v-3.32c0-2.09-.19-3.6-.19-3.6h.19s4.36,8.06,15.07,8.06c12.61,0,21.8-9.86,21.8-25.12s-8.15-25.12-21.05-25.12c-11.28,0-15.45,7.87-15.45,7.87h-.19s.19-1.71.19-3.98v-15.64c0-4.26-1.8-6.07-6.07-6.07h-9.1v7.87h3.89c1.32,0,2.09.66,2.09,2.08h.01Zm22.75,15.93c8.06,0,13.65,6.73,13.65,17.15s-6.26,17.16-13.84,17.16c-9.1,0-13.56-8.53-13.56-17.06,0-12.23,6.64-17.25,13.75-17.25Z"/>
      <path class="cls-1" d="m325.28,157.05h-.19s.19-1.42.19-3.32v-3.03c0-3.88-1.99-5.59-6.16-5.59h-8.72v7.87h3.89c1.32,0,2.09.66,2.09,2.09v38.01h9.2v-19.62c0-2.94.28-5.88,1.14-8.63,2.18-7.11,7.59-11.28,13.46-11.28,1.52,0,2.75.29,2.75.29v-9.1s-1.23-.19-2.46-.19c-7.4,0-12.89,5.5-15.17,12.51h-.02Z"/>
      <path class="cls-1" d="m362.63,183.12v-31.95c0-4.26-1.8-6.06-6.06-6.06h-9.01v7.87h3.89c1.33,0,2.09.66,2.09,2.09v31.94c0,4.26,1.8,6.06,6.07,6.06h9v-7.87h-3.89c-1.33,0-2.09-.66-2.09-2.09h0Z"/>
      <rect class="cls-1" x="353.72" y="126.15" width="8.25" height="9.57"/>
      <path class="cls-1" d="m400.27,143.97c-14.31,0-25.79,10.52-25.79,25.02s11.47,25.22,25.79,25.22,25.88-10.62,25.88-25.22-11.57-25.02-25.88-25.02Zm0,42.28c-9,0-16.4-7.2-16.4-17.25s7.4-17.06,16.4-17.06,16.49,7.11,16.49,17.06-7.39,17.25-16.49,17.25Z"/>
    </g>
  </g>
</svg>