<?xml version="1.0" encoding="UTF-8"?>
<svg id="Layer_2" data-name="Layer 2" xmlns="http://www.w3.org/2000/svg" viewBox="0 0 426.1 106.3">
  <defs>
    <style>
      .cls-1 {
        fill: #fff;
      }
    </style>
  </defs>
  <g id="Layer_1-2" data-name="Layer 1">
    <g>
      <rect class="cls-1" width="426.1" height="14.6"/>
      <rect class="cls-1" y="91.7" width="426.1" height="14.6"/>
      <path class="cls-1" d="m425.5,27c-27.8,0-43,12.2-57.7,24.1-13.4,10.7-26,20.9-47.8,20.9h-1.4c-22,0-34.7-10.1-48-20.9-14.7-11.8-29.9-24-57.5-24.1h-.2c-27.6.1-42.8,12.3-57.5,24.1-13.5,10.8-26.1,21.1-48.4,20.9-22.4.3-35.2-10-48.7-20.9C43.6,39.2,28.4,27,.6,27c-.2,0-.4.1-.6.1v7.1c.2,0,.4.1.6.1,25.1,0,38.7,10.9,53,22.4,13.8,11.1,28,22.5,52.4,22.5h1.5c24.5,0,38.8-11.4,52.6-22.5,14.3-11.5,27.9-22.4,52.9-22.4s38.6,10.9,52.9,22.4c13.8,11.1,28,22.5,52.4,22.5h1.5c24.5,0,38.8-11.4,52.6-22.5,14.3-11.5,27.9-22.4,53-22.4.2,0,.4-.1.6-.1v-7.1c-.1,0-.2-.1-.5-.1Z"/>
    </g>
  </g>
</svg>